<svg width="26" height="27" viewBox="0 0 26 27" fill="none" xmlns="http://www.w3.org/2000/svg">
<path  className="box box-01" d="M14.2998 16.1661C14.2998 14.5319 14.2998 13.7148 14.8075 13.2071C15.3152 12.6995 16.1323 12.6995 17.7665 12.6995C19.4007 12.6995 20.2178 12.6995 20.7255 13.2071C21.2331 13.7148 21.2331 14.5319 21.2331 16.1661V17.8995C21.2331 19.5337 21.2331 20.3508 20.7255 20.8584C20.2178 21.3661 19.4007 21.3661 17.7665 21.3661C16.1323 21.3661 15.3152 21.3661 14.8075 20.8584C14.2998 20.3508 14.2998 19.5337 14.2998 17.8995V16.1661Z" stroke="#F8CE8B" strokeWidth="1.5"/>
<path className="box box-02" d="M4.3335 10.0995C4.3335 11.7337 4.3335 12.5508 4.84118 13.0585C5.34886 13.5662 6.16596 13.5662 7.80016 13.5662C9.43437 13.5662 10.2515 13.5662 10.7591 13.0585C11.2668 12.5508 11.2668 11.7337 11.2668 10.0995V8.3662C11.2668 6.732 11.2668 5.9149 10.7591 5.40722C10.2515 4.89954 9.43437 4.89954 7.80016 4.89954C6.16596 4.89954 5.34886 4.89954 4.84118 5.40722C4.3335 5.9149 4.3335 6.732 4.3335 8.3662V10.0995Z" stroke="#F8CE8B" strokeWidth="1.5"/>
<path className="box box-03" d="M14.2998 7.49954C14.2998 6.6919 14.2998 6.28809 14.4317 5.96955C14.6077 5.54484 14.9451 5.2074 15.3698 5.03148C15.6884 4.89954 16.0922 4.89954 16.8998 4.89954H18.6331C19.4408 4.89954 19.8446 4.89954 20.1631 5.03148C20.5878 5.2074 20.9253 5.54484 21.1012 5.96955C21.2331 6.28809 21.2331 6.6919 21.2331 7.49954C21.2331 8.30717 21.2331 8.71098 21.1012 9.02952C20.9253 9.45424 20.5878 9.79167 20.1631 9.96759C19.8446 10.0995 19.4408 10.0995 18.6331 10.0995H16.8998C16.0922 10.0995 15.6884 10.0995 15.3698 9.96759C14.9451 9.79167 14.6077 9.45424 14.4317 9.02952C14.2998 8.71098 14.2998 8.30717 14.2998 7.49954Z" stroke="#F8CE8B" strokeWidth="1.5"/>
<path className="box box-04" d="M4.3335 18.7661C4.3335 19.5738 4.3335 19.9776 4.46544 20.2961C4.64136 20.7208 4.9788 21.0583 5.40351 21.2342C5.72205 21.3661 6.12586 21.3661 6.9335 21.3661H8.66683C9.47446 21.3661 9.87828 21.3661 10.1968 21.2342C10.6215 21.0583 10.959 20.7208 11.1349 20.2961C11.2668 19.9776 11.2668 19.5738 11.2668 18.7661C11.2668 17.9585 11.2668 17.5547 11.1349 17.2362C10.959 16.8114 10.6215 16.474 10.1968 16.2981C9.87828 16.1661 9.47446 16.1661 8.66683 16.1661H6.9335C6.12586 16.1661 5.72205 16.1661 5.40351 16.2981C4.9788 16.474 4.64136 16.8114 4.46544 17.2362C4.3335 17.5547 4.3335 17.9585 4.3335 18.7661Z" stroke="#F8CE8B" strokeWidth="1.5"/>
</svg>
