<svg width="26" height="27" viewBox="0 0 26 27" fill="none" xmlns="http://www.w3.org/2000/svg">
<path d="M15.3664 21.8766C15.0782 21.8751 14.7937 21.8122 14.5317 21.6922C14.2697 21.5722 14.0363 21.3977 13.847 21.1805C13.5854 20.9288 13.4674 20.8271 13.1804 20.8271C12.8934 20.8271 12.7753 20.9288 12.5129 21.1805C12.3244 21.3988 12.0911 21.5739 11.8288 21.6939C11.5666 21.8139 11.2816 21.8761 10.9931 21.8761C10.7047 21.8761 10.4197 21.8139 10.1574 21.6939C9.89519 21.5739 9.66187 21.3988 9.47336 21.1805C9.21179 20.9279 9.0929 20.8263 8.8051 20.8263C8.63693 20.8201 8.47284 20.8788 8.34674 20.9902C8.13378 21.1636 7.87586 21.2727 7.60315 21.3048C7.33045 21.3369 7.05425 21.2906 6.80687 21.1715C6.56391 21.0558 6.35897 20.8732 6.21606 20.6452C6.07316 20.4172 5.99822 20.1532 6.00003 19.8841V5.56773C6.00047 5.1873 6.15178 4.82258 6.42079 4.55357C6.6898 4.28456 7.05452 4.13325 7.43495 4.13281H18.9143C19.2947 4.13325 19.6595 4.28456 19.9285 4.55357C20.1975 4.82258 20.3488 5.1873 20.3492 5.56773V19.8792C20.3509 20.1478 20.2762 20.4112 20.1338 20.6389C19.9914 20.8666 19.7871 21.049 19.5449 21.1649C19.2973 21.2846 19.0207 21.3313 18.7476 21.2995C18.4744 21.2677 18.216 21.1587 18.0025 20.9853C17.8782 20.8765 17.7166 20.8198 17.5515 20.8271C17.2637 20.8271 17.1465 20.9288 16.8841 21.1805C16.6951 21.3977 16.462 21.5721 16.2002 21.6921C15.9385 21.8121 15.6543 21.875 15.3664 21.8766ZM13.1804 19.5971C13.4684 19.5987 13.7528 19.6615 14.0147 19.7816C14.2765 19.9016 14.5098 20.0761 14.6989 20.2933C14.9613 20.545 15.0786 20.6467 15.3664 20.6467C15.6542 20.6467 15.7706 20.545 16.0322 20.2933C16.2215 20.076 16.4549 19.9016 16.7169 19.7816C16.9788 19.6615 17.2634 19.5987 17.5515 19.5971C17.9953 19.5895 18.4271 19.7407 18.7692 20.0235C18.8018 20.0522 18.8421 20.0706 18.8852 20.0764C18.9282 20.0823 18.972 20.0753 19.0111 20.0563C19.045 20.0413 19.0736 20.0164 19.0929 19.9847C19.1122 19.9531 19.1215 19.9162 19.1193 19.8792V5.56773C19.1193 5.51337 19.0977 5.46123 19.0593 5.42278C19.0208 5.38434 18.9687 5.36274 18.9143 5.36274H7.43495C7.38059 5.36274 7.32845 5.38434 7.29 5.42278C7.25156 5.46123 7.22996 5.51337 7.22996 5.56773V19.8825C7.22788 19.9198 7.2372 19.9569 7.25667 19.9888C7.27615 20.0208 7.30487 20.046 7.33902 20.0612C7.37763 20.0795 7.42071 20.0862 7.46305 20.0805C7.50538 20.0748 7.54518 20.057 7.57762 20.0293C7.92222 19.7419 8.35893 19.5884 8.80755 19.5971C9.09572 19.5989 9.38025 19.6617 9.64231 19.7816C9.90437 19.9015 10.138 20.0756 10.3278 20.2925C10.5901 20.545 10.7082 20.6467 10.9968 20.6467C11.2855 20.6467 11.4019 20.545 11.6635 20.2933C11.8525 20.0763 12.0855 19.9021 12.347 19.7821C12.6086 19.662 12.8926 19.599 13.1804 19.5971Z" fill="#7E7E7E"/>
<path d="M16.4543 8.64253H11.9446C11.7815 8.64253 11.625 8.57774 11.5097 8.46241C11.3944 8.34708 11.3296 8.19066 11.3296 8.02756C11.3296 7.86446 11.3944 7.70805 11.5097 7.59272C11.625 7.47739 11.7815 7.4126 11.9446 7.4126H16.4543C16.6174 7.4126 16.7738 7.47739 16.8892 7.59272C17.0045 7.70805 17.0693 7.86446 17.0693 8.02756C17.0693 8.19066 17.0045 8.34708 16.8892 8.46241C16.7738 8.57774 16.6174 8.64253 16.4543 8.64253Z" fill="#7E7E7E"/>
<path d="M16.4543 12.7424H11.9446C11.7815 12.7424 11.625 12.6776 11.5097 12.5623C11.3944 12.4469 11.3296 12.2905 11.3296 12.1274C11.3296 11.9643 11.3944 11.8079 11.5097 11.6926C11.625 11.5772 11.7815 11.5125 11.9446 11.5125H16.4543C16.6174 11.5125 16.7738 11.5772 16.8892 11.6926C17.0045 11.8079 17.0693 11.9643 17.0693 12.1274C17.0693 12.2905 17.0045 12.4469 16.8892 12.5623C16.7738 12.6776 16.6174 12.7424 16.4543 12.7424Z" fill="#7E7E7E"/>
<path d="M16.4543 16.8421H11.9446C11.7815 16.8421 11.625 16.7773 11.5097 16.662C11.3944 16.5467 11.3296 16.3902 11.3296 16.2271C11.3296 16.064 11.3944 15.9076 11.5097 15.7923C11.625 15.677 11.7815 15.6122 11.9446 15.6122H16.4543C16.6174 15.6122 16.7738 15.677 16.8892 15.7923C17.0045 15.9076 17.0693 16.064 17.0693 16.2271C17.0693 16.3902 17.0045 16.5467 16.8892 16.662C16.7738 16.7773 16.6174 16.8421 16.4543 16.8421Z" fill="#7E7E7E"/>
<path d="M9.89466 12.9473C10.3475 12.9473 10.7146 12.5802 10.7146 12.1273C10.7146 11.6745 10.3475 11.3074 9.89466 11.3074C9.44181 11.3074 9.07471 11.6745 9.07471 12.1273C9.07471 12.5802 9.44181 12.9473 9.89466 12.9473Z" fill="#7E7E7E"/>
<path d="M9.89466 8.84755C10.3475 8.84755 10.7146 8.48044 10.7146 8.0276C10.7146 7.57475 10.3475 7.20764 9.89466 7.20764C9.44181 7.20764 9.07471 7.57475 9.07471 8.0276C9.07471 8.48044 9.44181 8.84755 9.89466 8.84755Z" fill="#7E7E7E"/>
<path d="M9.89466 17.0471C10.3475 17.0471 10.7146 16.68 10.7146 16.2272C10.7146 15.7743 10.3475 15.4072 9.89466 15.4072C9.44181 15.4072 9.07471 15.7743 9.07471 16.2272C9.07471 16.68 9.44181 17.0471 9.89466 17.0471Z" fill="#7E7E7E"/>
</svg>
