<svg width="24" height="25" viewBox="0 0 24 25" fill="none" xmlns="http://www.w3.org/2000/svg">
<path d="M9.60205 8.03906C9.61174 6.29904 9.6889 5.35671 10.3036 4.74201C11.0065 4.03906 12.1379 4.03906 14.4007 4.03906L15.2007 4.03906C17.4634 4.03906 18.5948 4.03906 19.2977 4.74201C20.0007 5.44495 20.0007 6.57632 20.0007 8.83906L20.0007 15.2391C20.0007 17.5018 20.0007 18.6332 19.2977 19.3361C18.5948 20.0391 17.4634 20.0391 15.2007 20.0391L14.4007 20.0391C12.1379 20.0391 11.0065 20.0391 10.3036 19.3361C9.6889 18.7214 9.61174 17.7791 9.60205 16.0391" stroke="#FF2222" strokeWidth="1.5" strokeLinecap="round"/>
<path d="M14.4009 12.039L4.00088 12.039M4.00088 12.039L6.80088 9.63897M4.00088 12.039L6.80088 14.439" stroke="#FF2222" strokeWidth="1.5" strokeLinecap="round" strokeLinejoin="round"/>
</svg>
