<svg width="52" height="52" viewBox="0 0 52 52" fill="none" xmlns="http://www.w3.org/2000/svg">
<path d="M8.6665 29.4666C8.6665 22.9298 8.6665 19.6614 10.6972 17.6307C12.728 15.6 15.9964 15.6 22.5332 15.6H29.4665C36.0033 15.6 39.2717 15.6 41.3024 17.6307C43.3332 19.6614 43.3332 22.9298 43.3332 29.4666C43.3332 36.0035 43.3332 39.2719 41.3024 41.3026C39.2717 43.3333 36.0033 43.3333 29.4665 43.3333H22.5332C15.9964 43.3333 12.728 43.3333 10.6972 41.3026C8.6665 39.2719 8.6665 36.0035 8.6665 29.4666Z" stroke="#A6BEFF" strokeWidth="3"/>
<path d="M32.9336 15.6C32.9336 12.3316 32.9336 10.6974 31.9182 9.68199C30.9028 8.66663 29.2686 8.66663 26.0002 8.66663C22.7318 8.66663 21.0976 8.66663 20.0823 9.68199C19.0669 10.6974 19.0669 12.3316 19.0669 15.6" stroke="#A6BEFF" strokeWidth="3"/>
<path d="M25.9999 35.2444C27.9145 35.2444 29.4665 33.951 29.4665 32.3555C29.4665 30.7601 27.9145 29.4667 25.9999 29.4667C24.0853 29.4667 22.5332 28.1733 22.5332 26.5778C22.5332 24.9823 24.0853 23.6889 25.9999 23.6889M25.9999 35.2444C24.0853 35.2444 22.5332 33.951 22.5332 32.3555M25.9999 35.2444V36.4M25.9999 22.5333V23.6889M25.9999 23.6889C27.9145 23.6889 29.4665 24.9823 29.4665 26.5778" stroke="#A6BEFF" strokeWidth="3" strokeLinecap="round"/>
</svg>
