<svg width="40" height="40" viewBox="0 0 40 40" fill="none" xmlns="http://www.w3.org/2000/svg">
<circle cx="20" cy="20" r="20" fill="#111010"/>
<path d="M16.5103 23.0331L16.5103 18.1434" stroke="#F8CE8B" strokeWidth="1.2" strokeLinecap="round" strokeLinejoin="round"/>
<path d="M27.7837 18.1433H25.6627C24.2086 18.1433 23.0298 19.2379 23.0298 20.5882C23.0298 21.9384 24.2086 23.033 25.6627 23.033H27.7837C27.8516 23.033 27.8855 23.033 27.9142 23.0313C28.3537 23.0045 28.7038 22.6795 28.7326 22.2714C28.7344 22.2447 28.7344 22.2132 28.7344 22.1502V19.0262C28.7344 18.9631 28.7344 18.9316 28.7326 18.905C28.7038 18.4969 28.3537 18.1718 27.9142 18.1451C27.8855 18.1433 27.8516 18.1433 27.7837 18.1433Z" stroke="#F8CE8B" strokeWidth="1.2"/>
<circle cx="25.4749" cy="20.5881" r="0.6" fill="#F8CE8B" stroke="#F8CE8B" strokeWidth="0.429902"/>
<path d="M27.8911 18.1434C27.8278 16.6175 27.6235 15.682 26.9648 15.0234C26.0101 14.0686 24.4734 14.0686 21.4 14.0686L18.9552 14.0686C15.8818 14.0686 14.3451 14.0686 13.3903 15.0234C12.4355 15.9782 12.4355 17.5148 12.4355 20.5882C12.4355 23.6616 12.4355 25.1983 13.3903 26.153C14.3451 27.1078 15.8818 27.1078 18.9552 27.1078H21.4C24.4734 27.1078 26.0101 27.1078 26.9648 26.153C27.6235 25.4944 27.8278 24.5589 27.8911 23.0331" stroke="#F8CE8B" strokeWidth="1.2"/>
</svg>
