<svg width="53" height="52" viewBox="0 0 53 52" fill="none" xmlns="http://www.w3.org/2000/svg">
<path d="M10.5 26C10.5 18.4575 10.5 14.6863 12.8431 12.3431C15.1863 10 18.9575 10 26.5 10C34.0425 10 37.8137 10 40.1569 12.3431C42.5 14.6863 42.5 18.4575 42.5 26C42.5 33.5425 42.5 37.3137 40.1569 39.6569C37.8137 42 34.0425 42 26.5 42C18.9575 42 15.1863 42 12.8431 39.6569C10.5 37.3137 10.5 33.5425 10.5 26Z" stroke="#B8CA79" strokeWidth="2.5"/>
<path d="M16.8994 32.0798L18.728 33.9998L23.2994 29.1998" stroke="#B8CA79" strokeWidth="2.5" strokeLinecap="round" strokeLinejoin="round"/>
<path d="M16.8994 20.8794L18.728 22.7994L23.2994 17.9994" stroke="#B8CA79" strokeWidth="2.5" strokeLinecap="round" strokeLinejoin="round"/>
<path d="M28.0996 21.1992L36.0996 21.1992" stroke="#B8CA79" strokeWidth="2.5" strokeLinecap="round"/>
<path d="M28.0996 32.3998H36.0996" stroke="#B8CA79" strokeWidth="2.5" strokeLinecap="round"/>
</svg>
