<svg width="40" height="40" viewBox="0 0 40 40" fill="none" xmlns="http://www.w3.org/2000/svg">
<circle cx="20" cy="20" r="20" fill="#111010"/>
<path d="M19.9949 11.5208L20.4216 10.9694C20.2994 10.8749 20.1494 10.8236 19.9949 10.8236C19.8405 10.8236 19.6904 10.8749 19.5682 10.9694L19.9949 11.5208ZM27.3072 13.669L28.0051 13.6804C28.0066 13.5878 27.9896 13.4959 27.9552 13.41C27.9208 13.324 27.8696 13.2458 27.8046 13.1798C27.7397 13.1139 27.6623 13.0615 27.5769 13.0257C27.4915 12.99 27.3998 12.9716 27.3072 12.9716V13.669ZM19.9949 28.6071L19.6085 29.1879C19.7229 29.2642 19.8574 29.3049 19.9949 29.3049C20.1324 29.3049 20.2669 29.2642 20.3813 29.1879L19.9949 28.6071ZM12.6935 13.669V12.9716C12.6009 12.9716 12.5093 12.9901 12.424 13.0259C12.3387 13.0616 12.2613 13.114 12.1964 13.18C12.1315 13.246 12.0804 13.3242 12.046 13.4101C12.0116 13.496 11.9946 13.5879 11.9961 13.6804L12.6935 13.669ZM19.5682 12.0722C22.7339 14.5248 26.3562 14.3669 27.3077 14.3669V12.9716C26.3234 12.9716 23.1672 13.0958 20.4226 10.9694L19.5682 12.0722ZM26.6103 13.6576C26.5581 16.8978 26.4206 19.1835 26.1585 20.8766C25.8991 22.5521 25.5288 23.5558 25.0519 24.2613C24.5687 24.9938 23.9614 25.4286 23.0648 25.9653C22.1588 26.5077 21.0147 27.0923 19.609 28.0263L20.3818 29.1879C21.7193 28.2965 22.8344 27.7285 23.7812 27.1624C24.7356 26.5902 25.5748 25.9605 26.2078 25.0426C26.8469 24.0973 27.2622 22.8655 27.5353 21.0899C27.8065 19.3319 27.9506 16.9513 28.0042 13.6804L26.6103 13.6576ZM20.3813 28.0263C18.9756 27.0923 17.832 26.5091 16.9274 25.9653C16.0303 25.4291 15.4254 24.9943 14.9436 24.2618C14.4695 23.5568 14.0988 22.5549 13.8404 20.877C13.5787 19.1835 13.4421 16.8978 13.3895 13.6576L11.9946 13.6804C12.0482 16.9518 12.1914 19.3319 12.4616 21.0894C12.7352 22.865 13.1496 24.0968 13.7892 25.0422C14.4202 25.9601 15.2589 26.5902 16.2124 27.1624C17.1578 27.7281 18.2724 28.2965 19.6104 29.1879L20.3813 28.0263ZM12.6921 14.3669C13.6341 14.3669 17.2564 14.5248 20.4202 12.0722L19.5668 10.9694C16.8216 13.0958 13.6654 12.9716 12.6921 12.9716V14.3669Z" fill="#3375BB"/>
</svg>
