<svg width="26" height="27" viewBox="0 0 26 27" fill="none" xmlns="http://www.w3.org/2000/svg">
<path fillRule="evenodd" clipRule="evenodd" d="M18.57 7.80203C18.6968 7.92876 18.7679 8.10065 18.7679 8.27987V11.1298C20.0594 10.8248 21.0205 9.66456 21.0205 8.27987C21.0205 6.6626 19.7094 5.35154 18.0922 5.35154H7.27987C5.66259 5.35154 4.35154 6.6626 4.35154 8.27987C4.35154 9.66456 5.31261 10.8248 6.6041 11.1298V8.27987C6.6041 8.10065 6.6753 7.92876 6.80203 7.80203C6.92876 7.6753 7.10065 7.6041 7.27987 7.6041H18.0922C18.2714 7.6041 18.4433 7.6753 18.57 7.80203ZM6.6041 12.5067C4.56149 12.1827 3 10.4136 3 8.27987C3 5.91617 4.91617 4 7.27987 4H18.0922C20.4559 4 22.372 5.91617 22.372 8.27987C22.372 10.4136 20.8106 12.1827 18.7679 12.5067V19.0922C18.7679 20.4607 17.6586 21.57 16.2901 21.57H9.08192C7.71346 21.57 6.6041 20.4607 6.6041 19.0922V12.5067ZM17.4164 8.95564H7.95564V19.0922C7.95564 19.7142 8.45989 20.2185 9.08192 20.2185H16.2901C16.9122 20.2185 17.4164 19.7142 17.4164 19.0922V11.884V8.95564ZM14.9658 15.0102C15.2298 15.2741 15.2298 15.7019 14.9658 15.9658L13.8009 17.1308C13.1851 17.7465 12.1868 17.7465 11.571 17.1308L10.4061 15.9658C10.1422 15.7019 10.1422 15.2741 10.4061 15.0102C10.67 14.7463 11.0978 14.7463 11.3617 15.0102L12.0102 15.6587V11.8839C12.0102 11.5107 12.3128 11.2082 12.686 11.2082C13.0592 11.2082 13.3617 11.5107 13.3617 11.8839V15.6587L14.0102 15.0102C14.2741 14.7463 14.7019 14.7463 14.9658 15.0102Z" fill="#7E7E7E"/>
</svg>
