<svg width="26" height="27" viewBox="0 0 26 27" fill="none" xmlns="http://www.w3.org/2000/svg">
<path d="M12.7492 17.0086C10.7309 17.0086 9.08887 15.3665 9.08887 13.3483C9.08887 11.33 10.7309 9.68799 12.7492 9.68799C14.7673 9.68799 16.4093 11.33 16.4093 13.3483C16.4093 15.3665 14.7673 17.0086 12.7492 17.0086ZM12.7492 10.7861C11.3362 10.7861 10.1869 11.9355 10.1869 13.3483C10.1869 14.7611 11.3362 15.9105 12.7492 15.9105C14.162 15.9105 15.3112 14.7611 15.3112 13.3483C15.3112 11.9355 14.162 10.7861 12.7492 10.7861Z" fill="#7E7E7E"/>
<path d="M13.9668 22.1329H11.5319C10.9463 22.1329 10.4287 21.7171 10.3014 21.1439L9.99322 19.7735C9.49096 19.5605 9.01216 19.2823 8.56272 18.9427L7.2282 19.3642C6.65571 19.5421 6.03348 19.2991 5.7465 18.7866L4.53288 16.688C4.24215 16.1681 4.34026 15.5284 4.76786 15.1257L5.80213 14.1748C5.77076 13.8959 5.75535 13.6192 5.75535 13.3483C5.75535 13.0774 5.77076 12.8007 5.80146 12.5218L4.77295 11.5753C4.34026 11.1682 4.24148 10.5285 4.52913 10.0153L5.75025 7.90338C6.03348 7.3967 6.65718 7.15596 7.22605 7.33088L8.56272 7.75325C9.01216 7.41359 9.49096 7.13545 9.99322 6.92232L10.3021 5.55054C10.4287 4.97952 10.9463 4.56372 11.5319 4.56372H13.9668C14.5524 4.56372 15.0699 4.97952 15.1973 5.55268L15.5054 6.92313C16.0077 7.13612 16.4865 7.41426 16.9359 7.75392L18.2704 7.33236C18.8444 7.15596 19.4652 7.3975 19.7521 7.90995L20.9659 10.0086C21.2565 10.5285 21.1584 11.1682 20.7308 11.5709L19.6965 12.5218C19.7272 12.8007 19.7426 13.0782 19.7426 13.3483C19.7426 13.6184 19.7272 13.8959 19.6965 14.1748L20.7257 15.1206C20.7272 15.1221 20.7286 15.1235 20.7308 15.125C21.1584 15.5276 21.2572 16.1675 20.9695 16.6806L19.7484 18.7925C19.4652 19.2991 18.8429 19.5414 18.2719 19.3642L16.9351 18.9419C16.4857 19.2815 16.0069 19.5597 15.5048 19.7728L15.1958 21.1446C15.0699 21.7171 14.5524 22.1329 13.9668 22.1329ZM8.67478 17.7837C8.80065 17.7837 8.92437 17.8269 9.02396 17.9089C9.52689 18.3226 10.0751 18.6417 10.6557 18.8555C10.8306 18.9199 10.9602 19.0685 11.0012 19.25L11.3738 20.9045C11.3906 20.9806 11.4572 21.0348 11.5327 21.0348H13.9674C14.0429 21.0348 14.1095 20.9806 14.1256 20.906L14.4989 19.25C14.5399 19.0685 14.6695 18.9199 14.8445 18.8555C15.4242 18.6417 15.9732 18.3226 16.4762 17.9089C16.6197 17.7903 16.8129 17.7522 16.9909 17.8087L18.6021 18.3175C18.6789 18.3416 18.7609 18.3131 18.796 18.2501L20.0171 16.1381C20.0537 16.073 20.0405 15.9837 19.982 15.9266L18.7463 14.7905C18.6123 14.6674 18.5479 14.4851 18.575 14.3051C18.6232 13.9808 18.6475 13.6587 18.6475 13.3476C18.6475 13.0364 18.6232 12.7143 18.575 12.39C18.5479 12.21 18.6123 12.0284 18.7463 11.9047L19.9848 10.7656C20.0405 10.7137 20.0537 10.6228 20.0134 10.5504L18.7996 8.45161C18.7602 8.38204 18.6767 8.35429 18.6006 8.37842L16.9916 8.88644C16.8143 8.94287 16.6212 8.9048 16.477 8.78618C15.974 8.37252 15.4257 8.05337 14.8451 7.83957C14.6702 7.77523 14.5406 7.62658 14.4997 7.44509L14.1271 5.79061C14.1087 5.71595 14.0421 5.66179 13.9668 5.66179H11.5319C11.4566 5.66179 11.3899 5.71595 11.3738 5.79061L11.0004 7.44656C10.9595 7.62805 10.8299 7.7759 10.655 7.84105C10.0751 8.05484 9.52608 8.374 9.02396 8.78765C8.87973 8.90628 8.68497 8.94354 8.50937 8.88792L6.89805 8.37909C6.82272 8.35577 6.73921 8.38352 6.70409 8.44652L5.48297 10.5577C5.44638 10.6236 5.45965 10.7144 5.52037 10.7715L6.75463 11.9055C6.88854 12.0284 6.95301 12.2107 6.92593 12.3908C6.87755 12.7151 6.85342 13.0372 6.85342 13.3483C6.85342 13.6594 6.87755 13.9815 6.92593 14.3058C6.95301 14.4859 6.88854 14.6674 6.75463 14.7911L5.51595 15.9302C5.46032 15.9822 5.44718 16.073 5.4874 16.1455L6.70115 18.2442C6.73988 18.3137 6.82339 18.3408 6.9002 18.3175L8.50937 17.8093C8.56353 17.7918 8.61915 17.7837 8.67478 17.7837Z" fill="#7E7E7E"/>
</svg>
