<svg width="26" height="27" viewBox="0 0 26 27" fill="none" xmlns="http://www.w3.org/2000/svg">
<path d="M12.9434 13.0992C13.393 13.0992 13.7564 13.4635 13.7564 13.9122V14.3187H14.1629C14.6125 14.3187 14.9759 14.6822 14.9759 15.1317C14.9759 15.5813 14.6125 15.9448 14.1629 15.9448H12.5369C12.3133 15.9448 12.1304 16.1277 12.1304 16.3513C12.1304 16.5748 12.3133 16.7578 12.5369 16.7578H13.3499C14.471 16.7578 15.3824 17.6691 15.3824 18.7903C15.3824 19.7724 14.6832 20.5927 13.7564 20.7813V21.2293C13.7564 21.6789 13.393 22.0423 12.9434 22.0423C12.4938 22.0423 12.1304 21.6789 12.1304 21.2293V20.8228H11.3174C10.8678 20.8228 10.5044 20.4594 10.5044 20.0098C10.5044 19.5602 10.8678 19.1968 11.3174 19.1968H13.3499C13.5735 19.1968 13.7564 19.0138 13.7564 18.7903C13.7564 18.5667 13.5735 18.3838 13.3499 18.3838H12.5369C11.4158 18.3838 10.5044 17.4724 10.5044 16.3513C10.5044 15.3691 11.2036 14.5488 12.1304 14.3602V13.9122C12.1304 13.4635 12.4938 13.0992 12.9434 13.0992Z" fill="#7E7E7E"/>
<path d="M22.2011 3.00014C17.68 1.10666 14.1101 2.57251 12.7296 4.90826C10.9272 2.69527 7.51257 2.54161 4.69795 2.94486C4.22235 3.01315 3.9069 3.479 4.02479 3.94729C5.00852 7.88385 7.87842 9.9814 12.1304 8.92043V10.3025C8.4776 10.709 5.6264 13.8123 5.6264 17.5716C5.6264 21.6065 8.90849 24.8886 12.9434 24.8886C16.9784 24.8886 20.2604 21.6065 20.2604 17.5716C20.2604 13.8123 17.4092 10.7082 13.7564 10.3025V8.13507C18.106 9.38872 21.2011 8.40742 22.658 4.00583C22.7913 3.60177 22.5921 3.16437 22.2011 3.00014ZM5.87925 4.44566C8.48411 4.22697 11.6288 4.70908 12.0808 7.25621C9.18492 8.09604 6.95729 7.31231 5.87925 4.44566ZM18.6344 17.5708C18.6344 20.7082 16.0808 23.2618 12.9434 23.2618C9.80605 23.2618 7.25241 20.7082 7.25241 17.5708C7.25241 14.4334 9.80605 11.8798 12.9434 11.8798C16.0808 11.8798 18.6344 14.4334 18.6344 17.5708ZM13.8272 6.45784C14.2865 4.61883 16.9312 2.9099 20.8409 4.2229C19.5117 7.34402 17.0808 7.48629 13.8272 6.45784Z" fill="#7E7E7E"/>
</svg>
